<?xml version="1.0" encoding="UTF-8"?>
<svg version="1.1" xmlns="http://www.w3.org/2000/svg" width="180" height="180">
<path d="M0 0 C1.42913802 -0.01141381 2.85823711 -0.03169346 4.28710938 -0.06152344 C28.26891855 -0.56102819 49.57439692 9.21702749 67.08447266 25.41235352 C68.79541016 27.29516602 68.79541016 27.29516602 68.79541016 29.29516602 C69.38837891 29.54008789 69.98134766 29.78500977 70.59228516 30.03735352 C81.41621869 36.21697514 87.86902139 56.19205235 91.10400391 67.62329102 C91.33216797 68.50500977 91.56033203 69.38672852 91.79541016 70.29516602 C91.97048096 70.86654297 92.14555176 71.43791992 92.32592773 72.02661133 C93.3768916 77.10490369 93.02170003 82.43621052 93.03564453 87.60961914 C93.04525489 89.76041784 93.07625502 91.91022021 93.10791016 94.06079102 C93.19824362 105.58205729 91.33405996 115.83358192 86.54541016 126.35766602 C86.24022461 127.03539063 85.93503906 127.71311523 85.62060547 128.41137695 C75.08897785 151.23892336 56.30685992 167.79379643 32.92041016 176.67016602 C23.63418028 179.94946172 14.87509757 180.6413435 5.10375977 180.61083984 C2.99719047 180.60768739 0.89204046 180.63118102 -1.21435547 180.65649414 C-12.62759557 180.71166337 -22.84467096 178.78312224 -33.26708984 174.04516602 C-33.94046387 173.74433105 -34.61383789 173.44349609 -35.30761719 173.13354492 C-43.60673496 169.3270637 -51.54774815 164.59217843 -58.20458984 158.29516602 C-58.20458984 157.63516602 -58.20458984 156.97516602 -58.20458984 156.29516602 C-58.78724609 156.04379883 -59.36990234 155.79243164 -59.97021484 155.53344727 C-72.92431937 148.35433689 -80.71961166 129.14425359 -85.02270508 115.74829102 C-87.22287261 108.00558211 -87.70087501 100.49327066 -87.65063477 92.48706055 C-87.64212465 90.42858584 -87.67100601 88.37290032 -87.70263672 86.31469727 C-87.75141205 77.12977492 -86.2492186 69.00058045 -83.20458984 60.29516602 C-82.94782471 59.56007812 -82.69105957 58.82499023 -82.42651367 58.06762695 C-78.50874417 47.59206635 -72.92456697 37.45628469 -65.20458984 29.29516602 C-64.54458984 29.29516602 -63.88458984 29.29516602 -63.20458984 29.29516602 C-62.93646484 28.65579102 -62.66833984 28.01641602 -62.39208984 27.35766602 C-61.20458984 25.29516602 -61.20458984 25.29516602 -58.20458984 24.29516602 C-57.89779297 23.68157227 -57.59099609 23.06797852 -57.27490234 22.43579102 C-52.7749349 13.43585613 -35.66284158 7.1011678 -26.42724609 3.93579102 C-23.36567349 2.98529153 -20.30772529 2.09817036 -17.20458984 1.29516602 C-16.6317627 1.12082031 -16.05893555 0.94647461 -15.46875 0.7668457 C-10.42446062 -0.28400259 -5.13952975 0.0284433 0 0 Z " fill="#D7FEED" transform="translate(87.20458984375,-0.295166015625)"/>
<path d="M0 0 C34.98 0 69.96 0 106 0 C106.04125 9.6525 106.0825 19.305 106.125 29.25 C106.14320801 32.29379883 106.16141602 35.33759766 106.18017578 38.47363281 C106.18601645 40.88346175 106.19111302 43.29329265 106.1953125 45.703125 C106.20554443 46.95657715 106.21577637 48.2100293 106.22631836 49.50146484 C106.22668091 51.29753174 106.22668091 51.29753174 106.22705078 53.12988281 C106.231492 54.16912903 106.23593323 55.20837524 106.24050903 56.27911377 C106 59 106 59 104 63 C88.16 63 72.32 63 56 63 C56 66.63 56 70.26 56 74 C53.525 74.495 53.525 74.495 51 75 C50 74 50 74 49.90234375 71.49609375 C49.91394531 70.48675781 49.92554688 69.47742188 49.9375 68.4375 C49.94652344 67.42558594 49.95554688 66.41367188 49.96484375 65.37109375 C49.97644531 64.58863281 49.98804688 63.80617187 50 63 C49.40309357 63.00444122 48.80618713 63.00888245 48.19119263 63.01345825 C41.99483629 63.05760581 35.79852442 63.08783059 29.60205078 63.10986328 C27.28757921 63.11993892 24.97312041 63.13359975 22.65869141 63.15087891 C19.33753307 63.17505865 16.0165426 63.1864673 12.6953125 63.1953125 C11.65569366 63.20563507 10.61607483 63.21595764 9.54495239 63.22659302 C8.58410736 63.22674408 7.62326233 63.22689514 6.63330078 63.22705078 C5.78502716 63.231492 4.93675354 63.23593323 4.06277466 63.24050903 C2 63 2 63 0 61 C-0.24050903 58.44369507 -0.24050903 58.44369507 -0.22705078 55.17333984 C-0.22680908 53.93511475 -0.22656738 52.69688965 -0.22631836 51.42114258 C-0.21608643 50.1142749 -0.20585449 48.80740723 -0.1953125 47.4609375 C-0.19329834 46.26380127 -0.19128418 45.06666504 -0.18920898 43.83325195 C-0.17871878 39.34712918 -0.15079639 34.86106087 -0.125 30.375 C-0.08375 20.35125 -0.0425 10.3275 0 0 Z " fill="#33CCA1" transform="translate(37,68)"/>
<path d="M0 0 C1.31250229 -0.00422974 1.31250229 -0.00422974 2.65151978 -0.00854492 C4.1024855 -0.00550858 4.1024855 -0.00550858 5.58276367 -0.00241089 C6.59567474 -0.00416321 7.60858582 -0.00591553 8.65219116 -0.00772095 C12.01838874 -0.01214158 15.38453426 -0.00920073 18.75073242 -0.00582886 C21.07861338 -0.00650184 23.40649428 -0.00747181 25.734375 -0.00872803 C30.62036811 -0.01020529 35.50634299 -0.00804954 40.39233398 -0.00338745 C46.67095898 0.00230985 52.94954124 -0.00096901 59.22816467 -0.00695992 C64.03723475 -0.01056477 68.84629461 -0.00942729 73.65536499 -0.00683212 C75.97114059 -0.00616264 78.28691711 -0.006992 80.60269165 -0.00931168 C83.83305334 -0.01183696 87.06334475 -0.00799935 90.29370117 -0.00241089 C91.26101166 -0.00443512 92.22832214 -0.00645935 93.22494507 -0.00854492 C94.09994659 -0.0057251 94.97494812 -0.00290527 95.87646484 0 C96.64117599 0.00037703 97.40588715 0.00075405 98.19377136 0.0011425 C99.93823242 0.12698364 99.93823242 0.12698364 100.93823242 1.12698364 C100.93823242 9.04698364 100.93823242 16.96698364 100.93823242 25.12698364 C65.95823242 25.12698364 30.97823242 25.12698364 -5.06176758 25.12698364 C-5.06176758 0.0024956 -5.06176758 0.0024956 0 0 Z " fill="#02B59C" transform="translate(42.061767578125,36.873016357421875)"/>
<path d="M0 0 C5.28351111 3.14182018 9.18509542 7.31404376 11.79296875 12.90234375 C13.41885369 20.44053758 12.85572455 25.93962589 9.109375 32.78125 C6.5570413 36.39858625 3.46773839 39.1398073 -0.51953125 41.08984375 C-1.83953125 41.08984375 -3.15953125 41.08984375 -4.51953125 41.08984375 C-4.84953125 45.37984375 -5.17953125 49.66984375 -5.51953125 54.08984375 C9.99046875 54.08984375 25.50046875 54.08984375 41.48046875 54.08984375 C41.48046875 54.41984375 41.48046875 54.74984375 41.48046875 55.08984375 C25.64046875 55.08984375 9.80046875 55.08984375 -6.51953125 55.08984375 C-6.51953125 58.71984375 -6.51953125 62.34984375 -6.51953125 66.08984375 C-8.99453125 66.58484375 -8.99453125 66.58484375 -11.51953125 67.08984375 C-11.84953125 66.75984375 -12.17953125 66.42984375 -12.51953125 66.08984375 C-12.51953125 62.45984375 -12.51953125 58.82984375 -12.51953125 55.08984375 C-28.35953125 55.08984375 -44.19953125 55.08984375 -60.51953125 55.08984375 C-60.51953125 54.75984375 -60.51953125 54.42984375 -60.51953125 54.08984375 C-45.00953125 54.08984375 -29.49953125 54.08984375 -13.51953125 54.08984375 C-13.51953125 50.12984375 -13.51953125 46.16984375 -13.51953125 42.08984375 C-15.16953125 41.75984375 -16.81953125 41.42984375 -18.51953125 41.08984375 C-25.34702069 37.58558307 -29.15031766 32.29574683 -31.51953125 25.08984375 C-32.76594513 18.51583781 -31.11453901 12.66577415 -27.51953125 7.08984375 C-20.19956167 -0.8585223 -10.55920928 -3.81441203 0 0 Z " fill="#C6FAE3" transform="translate(99.51953125,75.91015625)"/>
<path d="M0 0 C2.875 1.125 2.875 1.125 5 3 C5.928125 3.804375 6.85625 4.60875 7.8125 5.4375 C10.85865837 9.28375693 10.63094387 13.42187995 10.42578125 18.15234375 C9.70270754 22.98831377 7.52699163 25.61616384 4 28.8125 C-0.17243176 31.28988136 -4.19647502 31.4803525 -9 31 C-14.16024802 28.71393424 -17.50234998 26.14485991 -20 21 C-20.96812872 15.91381652 -21.20007869 11.01888238 -18.5 6.4765625 C-12.7898653 -0.11388464 -8.57737113 -0.67224679 0 0 Z " fill="#28C7A0" transform="translate(95,81)"/>
<path d="M0 0 C5.82071622 -0.02464638 11.64140234 -0.0428343 17.4621582 -0.05493164 C19.44393441 -0.05997267 21.42570689 -0.06680538 23.4074707 -0.07543945 C26.24952109 -0.08751515 29.09152247 -0.09323045 31.93359375 -0.09765625 C32.82525742 -0.10281754 33.71692108 -0.10797882 34.63560486 -0.11329651 C36.75740601 -0.11349177 38.8791078 -0.0621003 41 0 C42 1 42 1 42.125 3.5 C42 6 42 6 41 7 C38.06634254 7.11353016 35.15711538 7.16418708 32.22265625 7.16796875 C31.34097275 7.17129715 30.45928925 7.17462555 29.55088806 7.17805481 C27.68212406 7.18312783 25.81335096 7.18546302 23.94458008 7.18530273 C21.07813656 7.18748808 18.2120784 7.20563655 15.34570312 7.22460938 C13.53385549 7.22754339 11.72200602 7.22952813 9.91015625 7.23046875 C8.61791893 7.24124702 8.61791893 7.24124702 7.29957581 7.25224304 C1.2288216 7.2288216 1.2288216 7.2288216 -1 5 C-0.625 2.375 -0.625 2.375 0 0 Z " fill="#CCF7E8" transform="translate(88,46)"/>
<path d="M0 0 C0.98484375 -0.00128906 1.9696875 -0.00257812 2.984375 -0.00390625 C4.02078125 -0.00003906 5.0571875 0.00382812 6.125 0.0078125 C7.67960937 0.00201172 7.67960937 0.00201172 9.265625 -0.00390625 C10.25046875 -0.00261719 11.2353125 -0.00132813 12.25 0 C13.16007812 0.00112793 14.07015625 0.00225586 15.0078125 0.00341797 C17.125 0.1328125 17.125 0.1328125 18.125 1.1328125 C18.16563832 2.79898365 18.167721 4.46669345 18.125 6.1328125 C15.68783785 7.35139357 14.09225943 7.26206825 11.37109375 7.265625 C10.43458984 7.26691406 9.49808594 7.26820312 8.53320312 7.26953125 C7.55287109 7.26566406 6.57253906 7.26179688 5.5625 7.2578125 C4.08620117 7.26361328 4.08620117 7.26361328 2.58007812 7.26953125 C1.64486328 7.26824219 0.70964844 7.26695313 -0.25390625 7.265625 C-1.1157251 7.26449707 -1.97754395 7.26336914 -2.86547852 7.26220703 C-4.875 7.1328125 -4.875 7.1328125 -5.875 6.1328125 C-6 3.6328125 -6 3.6328125 -5.875 1.1328125 C-4.22105883 -0.52112867 -2.27184587 0.00281567 0 0 Z " fill="#CBF7E7" transform="translate(55.875,45.8671875)"/>
<path d="M0 0 C1.98 0 3.96 0 6 0 C6 3.63 6 7.26 6 11 C4.35 11.33 2.7 11.66 1 12 C0 11 0 11 -0.09765625 8.49609375 C-0.08605469 7.48675781 -0.07445313 6.47742188 -0.0625 5.4375 C-0.05347656 4.42558594 -0.04445313 3.41367188 -0.03515625 2.37109375 C-0.02355469 1.58863281 -0.01195313 0.80617187 0 0 Z " fill="#8CF6AB" transform="translate(87,131)"/>
</svg>
